<?xml version="1.0" encoding="utf-8" standalone="no"?>
<!DOCTYPE svg PUBLIC "-//W3C//DTD SVG 1.1//EN"
  "http://www.w3.org/Graphics/SVG/1.1/DTD/svg11.dtd">
<svg height="360pt" version="1.1" viewBox="0 0 1080 360" width="1080pt" xmlns="http://www.w3.org/2000/svg" xmlns:xlink="http://www.w3.org/1999/xlink">
 <metadata>
  <rdf:RDF xmlns:cc="http://creativecommons.org/ns#" xmlns:dc="http://purl.org/dc/elements/1.1/" xmlns:rdf="http://www.w3.org/1999/02/22-rdf-syntax-ns#">
   <cc:Work>
    <dc:type rdf:resource="http://purl.org/dc/dcmitype/StillImage"/>
    <dc:date>2022-07-20T08:37:31.773341</dc:date>
    <dc:format>image/svg+xml</dc:format>
    <dc:creator>
     <cc:Agent>
      <dc:title>Matplotlib v3.4.2, https://matplotlib.org/</dc:title>
     </cc:Agent>
    </dc:creator>
   </cc:Work>
  </rdf:RDF>
 </metadata>
 <defs>
  <style type="text/css">*{stroke-linecap:butt;stroke-linejoin:round;}</style>
 </defs>
 <g id="figure_1">
  <g id="patch_1">
   <path d="M 0 360 
L 1080 360 
L 1080 0 
L 0 0 
z
" style="fill:#ffffff;"/>
  </g>
  <g id="axes_1">
   <g id="patch_2">
    <path d="M 135 315 
L 972 315 
L 972 43.2 
L 135 43.2 
z
" style="fill:#eaeaf2;"/>
   </g>
   <g id="matplotlib.axis_1">
    <g id="xtick_1">
     <g id="line2d_1">
      <path clip-path="url(#p72bf713151)" d="M 184.842495 315 
L 184.842495 43.2 
" style="fill:none;stroke:#ffffff;stroke-linecap:round;"/>
     </g>
     <g id="line2d_2"/>
     <g id="text_1">
      <!-- MCARI -->
      <g style="fill:#262626;" transform="translate(181.496998 387.953039)rotate(-75)scale(0.2 -0.2)">
       <defs>
        <path d="M 475 0 
L 475 4581 
L 1388 4581 
L 2472 1338 
Q 2622 884 2691 659 
Q 2769 909 2934 1394 
L 4031 4581 
L 4847 4581 
L 4847 0 
L 4263 0 
L 4263 3834 
L 2931 0 
L 2384 0 
L 1059 3900 
L 1059 0 
L 475 0 
z
" id="ArialMT-4d" transform="scale(0.015625)"/>
        <path d="M 3763 1606 
L 4369 1453 
Q 4178 706 3683 314 
Q 3188 -78 2472 -78 
Q 1731 -78 1267 223 
Q 803 525 561 1097 
Q 319 1669 319 2325 
Q 319 3041 592 3573 
Q 866 4106 1370 4382 
Q 1875 4659 2481 4659 
Q 3169 4659 3637 4309 
Q 4106 3959 4291 3325 
L 3694 3184 
Q 3534 3684 3231 3912 
Q 2928 4141 2469 4141 
Q 1941 4141 1586 3887 
Q 1231 3634 1087 3207 
Q 944 2781 944 2328 
Q 944 1744 1114 1308 
Q 1284 872 1643 656 
Q 2003 441 2422 441 
Q 2931 441 3284 734 
Q 3638 1028 3763 1606 
z
" id="ArialMT-43" transform="scale(0.015625)"/>
        <path d="M -9 0 
L 1750 4581 
L 2403 4581 
L 4278 0 
L 3588 0 
L 3053 1388 
L 1138 1388 
L 634 0 
L -9 0 
z
M 1313 1881 
L 2866 1881 
L 2388 3150 
Q 2169 3728 2063 4100 
Q 1975 3659 1816 3225 
L 1313 1881 
z
" id="ArialMT-41" transform="scale(0.015625)"/>
        <path d="M 503 0 
L 503 4581 
L 2534 4581 
Q 3147 4581 3465 4457 
Q 3784 4334 3975 4021 
Q 4166 3709 4166 3331 
Q 4166 2844 3850 2509 
Q 3534 2175 2875 2084 
Q 3116 1969 3241 1856 
Q 3506 1613 3744 1247 
L 4541 0 
L 3778 0 
L 3172 953 
Q 2906 1366 2734 1584 
Q 2563 1803 2427 1890 
Q 2291 1978 2150 2013 
Q 2047 2034 1813 2034 
L 1109 2034 
L 1109 0 
L 503 0 
z
M 1109 2559 
L 2413 2559 
Q 2828 2559 3062 2645 
Q 3297 2731 3419 2920 
Q 3541 3109 3541 3331 
Q 3541 3656 3305 3865 
Q 3069 4075 2559 4075 
L 1109 4075 
L 1109 2559 
z
" id="ArialMT-52" transform="scale(0.015625)"/>
        <path d="M 597 0 
L 597 4581 
L 1203 4581 
L 1203 0 
L 597 0 
z
" id="ArialMT-49" transform="scale(0.015625)"/>
       </defs>
       <use xlink:href="#ArialMT-4d"/>
       <use x="83.300781" xlink:href="#ArialMT-43"/>
       <use x="155.517578" xlink:href="#ArialMT-41"/>
       <use x="222.216797" xlink:href="#ArialMT-52"/>
       <use x="294.433594" xlink:href="#ArialMT-49"/>
      </g>
     </g>
    </g>
    <g id="xtick_2">
     <g id="line2d_3">
      <path clip-path="url(#p72bf713151)" d="M 214.335095 315 
L 214.335095 43.2 
" style="fill:none;stroke:#ffffff;stroke-linecap:round;"/>
     </g>
     <g id="line2d_4"/>
     <g id="text_2">
      <!-- re1 -->
      <g style="fill:#262626;" transform="translate(215.588894 353.623431)rotate(-75)scale(0.2 -0.2)">
       <defs>
        <path d="M 416 0 
L 416 3319 
L 922 3319 
L 922 2816 
Q 1116 3169 1280 3281 
Q 1444 3394 1641 3394 
Q 1925 3394 2219 3213 
L 2025 2691 
Q 1819 2813 1613 2813 
Q 1428 2813 1281 2702 
Q 1134 2591 1072 2394 
Q 978 2094 978 1738 
L 978 0 
L 416 0 
z
" id="ArialMT-72" transform="scale(0.015625)"/>
        <path d="M 2694 1069 
L 3275 997 
Q 3138 488 2766 206 
Q 2394 -75 1816 -75 
Q 1088 -75 661 373 
Q 234 822 234 1631 
Q 234 2469 665 2931 
Q 1097 3394 1784 3394 
Q 2450 3394 2872 2941 
Q 3294 2488 3294 1666 
Q 3294 1616 3291 1516 
L 816 1516 
Q 847 969 1125 678 
Q 1403 388 1819 388 
Q 2128 388 2347 550 
Q 2566 713 2694 1069 
z
M 847 1978 
L 2700 1978 
Q 2663 2397 2488 2606 
Q 2219 2931 1791 2931 
Q 1403 2931 1139 2672 
Q 875 2413 847 1978 
z
" id="ArialMT-65" transform="scale(0.015625)"/>
        <path d="M 2384 0 
L 1822 0 
L 1822 3584 
Q 1619 3391 1289 3197 
Q 959 3003 697 2906 
L 697 3450 
Q 1169 3672 1522 3987 
Q 1875 4303 2022 4600 
L 2384 4600 
L 2384 0 
z
" id="ArialMT-31" transform="scale(0.015625)"/>
       </defs>
       <use xlink:href="#ArialMT-72"/>
       <use x="33.300781" xlink:href="#ArialMT-65"/>
       <use x="88.916016" xlink:href="#ArialMT-31"/>
      </g>
     </g>
    </g>
    <g id="xtick_3">
     <g id="line2d_5">
      <path clip-path="url(#p72bf713151)" d="M 243.827696 315 
L 243.827696 43.2 
" style="fill:none;stroke:#ffffff;stroke-linecap:round;"/>
     </g>
     <g id="line2d_6"/>
     <g id="text_3">
      <!-- CHLRE -->
      <g style="fill:#262626;" transform="translate(240.048677 391.18889)rotate(-75)scale(0.2 -0.2)">
       <defs>
        <path d="M 513 0 
L 513 4581 
L 1119 4581 
L 1119 2700 
L 3500 2700 
L 3500 4581 
L 4106 4581 
L 4106 0 
L 3500 0 
L 3500 2159 
L 1119 2159 
L 1119 0 
L 513 0 
z
" id="ArialMT-48" transform="scale(0.015625)"/>
        <path d="M 469 0 
L 469 4581 
L 1075 4581 
L 1075 541 
L 3331 541 
L 3331 0 
L 469 0 
z
" id="ArialMT-4c" transform="scale(0.015625)"/>
        <path d="M 506 0 
L 506 4581 
L 3819 4581 
L 3819 4041 
L 1113 4041 
L 1113 2638 
L 3647 2638 
L 3647 2100 
L 1113 2100 
L 1113 541 
L 3925 541 
L 3925 0 
L 506 0 
z
" id="ArialMT-45" transform="scale(0.015625)"/>
       </defs>
       <use xlink:href="#ArialMT-43"/>
       <use x="72.216797" xlink:href="#ArialMT-48"/>
       <use x="144.433594" xlink:href="#ArialMT-4c"/>
       <use x="200.048828" xlink:href="#ArialMT-52"/>
       <use x="272.265625" xlink:href="#ArialMT-45"/>
      </g>
     </g>
    </g>
    <g id="xtick_4">
     <g id="line2d_7">
      <path clip-path="url(#p72bf713151)" d="M 273.320296 315 
L 273.320296 43.2 
" style="fill:none;stroke:#ffffff;stroke-linecap:round;"/>
     </g>
     <g id="line2d_8"/>
     <g id="text_4">
      <!-- nir -->
      <g style="fill:#262626;" transform="translate(275.438308 347.172858)rotate(-75)scale(0.2 -0.2)">
       <defs>
        <path d="M 422 0 
L 422 3319 
L 928 3319 
L 928 2847 
Q 1294 3394 1984 3394 
Q 2284 3394 2536 3286 
Q 2788 3178 2913 3003 
Q 3038 2828 3088 2588 
Q 3119 2431 3119 2041 
L 3119 0 
L 2556 0 
L 2556 2019 
Q 2556 2363 2490 2533 
Q 2425 2703 2258 2804 
Q 2091 2906 1866 2906 
Q 1506 2906 1245 2678 
Q 984 2450 984 1813 
L 984 0 
L 422 0 
z
" id="ArialMT-6e" transform="scale(0.015625)"/>
        <path d="M 425 3934 
L 425 4581 
L 988 4581 
L 988 3934 
L 425 3934 
z
M 425 0 
L 425 3319 
L 988 3319 
L 988 0 
L 425 0 
z
" id="ArialMT-69" transform="scale(0.015625)"/>
       </defs>
       <use xlink:href="#ArialMT-6e"/>
       <use x="55.615234" xlink:href="#ArialMT-69"/>
       <use x="77.832031" xlink:href="#ArialMT-72"/>
      </g>
     </g>
    </g>
    <g id="xtick_5">
     <g id="line2d_9">
      <path clip-path="url(#p72bf713151)" d="M 302.812896 315 
L 302.812896 43.2 
" style="fill:none;stroke:#ffffff;stroke-linecap:round;"/>
     </g>
     <g id="line2d_10"/>
     <g id="text_5">
      <!-- re2 -->
      <g style="fill:#262626;" transform="translate(304.066695 353.623431)rotate(-75)scale(0.2 -0.2)">
       <defs>
        <path d="M 3222 541 
L 3222 0 
L 194 0 
Q 188 203 259 391 
Q 375 700 629 1000 
Q 884 1300 1366 1694 
Q 2113 2306 2375 2664 
Q 2638 3022 2638 3341 
Q 2638 3675 2398 3904 
Q 2159 4134 1775 4134 
Q 1369 4134 1125 3890 
Q 881 3647 878 3216 
L 300 3275 
Q 359 3922 746 4261 
Q 1134 4600 1788 4600 
Q 2447 4600 2831 4234 
Q 3216 3869 3216 3328 
Q 3216 3053 3103 2787 
Q 2991 2522 2730 2228 
Q 2469 1934 1863 1422 
Q 1356 997 1212 845 
Q 1069 694 975 541 
L 3222 541 
z
" id="ArialMT-32" transform="scale(0.015625)"/>
       </defs>
       <use xlink:href="#ArialMT-72"/>
       <use x="33.300781" xlink:href="#ArialMT-65"/>
       <use x="88.916016" xlink:href="#ArialMT-32"/>
      </g>
     </g>
    </g>
    <g id="xtick_6">
     <g id="line2d_11">
      <path clip-path="url(#p72bf713151)" d="M 332.305497 315 
L 332.305497 43.2 
" style="fill:none;stroke:#ffffff;stroke-linecap:round;"/>
     </g>
     <g id="line2d_12"/>
     <g id="text_6">
      <!-- MNDVI -->
      <g style="fill:#262626;" transform="translate(328.96 387.953039)rotate(-75)scale(0.2 -0.2)">
       <defs>
        <path d="M 488 0 
L 488 4581 
L 1109 4581 
L 3516 984 
L 3516 4581 
L 4097 4581 
L 4097 0 
L 3475 0 
L 1069 3600 
L 1069 0 
L 488 0 
z
" id="ArialMT-4e" transform="scale(0.015625)"/>
        <path d="M 494 0 
L 494 4581 
L 2072 4581 
Q 2606 4581 2888 4516 
Q 3281 4425 3559 4188 
Q 3922 3881 4101 3404 
Q 4281 2928 4281 2316 
Q 4281 1794 4159 1391 
Q 4038 988 3847 723 
Q 3656 459 3429 307 
Q 3203 156 2883 78 
Q 2563 0 2147 0 
L 494 0 
z
M 1100 541 
L 2078 541 
Q 2531 541 2789 625 
Q 3047 709 3200 863 
Q 3416 1078 3536 1442 
Q 3656 1806 3656 2325 
Q 3656 3044 3420 3430 
Q 3184 3816 2847 3947 
Q 2603 4041 2063 4041 
L 1100 4041 
L 1100 541 
z
" id="ArialMT-44" transform="scale(0.015625)"/>
        <path d="M 1803 0 
L 28 4581 
L 684 4581 
L 1875 1253 
Q 2019 853 2116 503 
Q 2222 878 2363 1253 
L 3600 4581 
L 4219 4581 
L 2425 0 
L 1803 0 
z
" id="ArialMT-56" transform="scale(0.015625)"/>
       </defs>
       <use xlink:href="#ArialMT-4d"/>
       <use x="83.300781" xlink:href="#ArialMT-4e"/>
       <use x="155.517578" xlink:href="#ArialMT-44"/>
       <use x="227.734375" xlink:href="#ArialMT-56"/>
       <use x="294.433594" xlink:href="#ArialMT-49"/>
      </g>
     </g>
    </g>
    <g id="xtick_7">
     <g id="line2d_13">
      <path clip-path="url(#p72bf713151)" d="M 361.798097 315 
L 361.798097 43.2 
" style="fill:none;stroke:#ffffff;stroke-linecap:round;"/>
     </g>
     <g id="line2d_14"/>
     <g id="text_7">
      <!-- nirb -->
      <g style="fill:#262626;" transform="translate(362.476832 357.915764)rotate(-75)scale(0.2 -0.2)">
       <defs>
        <path d="M 941 0 
L 419 0 
L 419 4581 
L 981 4581 
L 981 2947 
Q 1338 3394 1891 3394 
Q 2197 3394 2470 3270 
Q 2744 3147 2920 2923 
Q 3097 2700 3197 2384 
Q 3297 2069 3297 1709 
Q 3297 856 2875 390 
Q 2453 -75 1863 -75 
Q 1275 -75 941 416 
L 941 0 
z
M 934 1684 
Q 934 1088 1097 822 
Q 1363 388 1816 388 
Q 2184 388 2453 708 
Q 2722 1028 2722 1663 
Q 2722 2313 2464 2622 
Q 2206 2931 1841 2931 
Q 1472 2931 1203 2611 
Q 934 2291 934 1684 
z
" id="ArialMT-62" transform="scale(0.015625)"/>
       </defs>
       <use xlink:href="#ArialMT-6e"/>
       <use x="55.615234" xlink:href="#ArialMT-69"/>
       <use x="77.832031" xlink:href="#ArialMT-72"/>
       <use x="111.132812" xlink:href="#ArialMT-62"/>
      </g>
     </g>
    </g>
    <g id="xtick_8">
     <g id="line2d_15">
      <path clip-path="url(#p72bf713151)" d="M 391.290698 315 
L 391.290698 43.2 
" style="fill:none;stroke:#ffffff;stroke-linecap:round;"/>
     </g>
     <g id="line2d_16"/>
     <g id="text_8">
      <!-- SAVI -->
      <g style="fill:#262626;" transform="translate(390.577472 368.305504)rotate(-75)scale(0.2 -0.2)">
       <defs>
        <path d="M 288 1472 
L 859 1522 
Q 900 1178 1048 958 
Q 1197 738 1509 602 
Q 1822 466 2213 466 
Q 2559 466 2825 569 
Q 3091 672 3220 851 
Q 3350 1031 3350 1244 
Q 3350 1459 3225 1620 
Q 3100 1781 2813 1891 
Q 2628 1963 1997 2114 
Q 1366 2266 1113 2400 
Q 784 2572 623 2826 
Q 463 3081 463 3397 
Q 463 3744 659 4045 
Q 856 4347 1234 4503 
Q 1613 4659 2075 4659 
Q 2584 4659 2973 4495 
Q 3363 4331 3572 4012 
Q 3781 3694 3797 3291 
L 3216 3247 
Q 3169 3681 2898 3903 
Q 2628 4125 2100 4125 
Q 1550 4125 1298 3923 
Q 1047 3722 1047 3438 
Q 1047 3191 1225 3031 
Q 1400 2872 2139 2705 
Q 2878 2538 3153 2413 
Q 3553 2228 3743 1945 
Q 3934 1663 3934 1294 
Q 3934 928 3725 604 
Q 3516 281 3123 101 
Q 2731 -78 2241 -78 
Q 1619 -78 1198 103 
Q 778 284 539 648 
Q 300 1013 288 1472 
z
" id="ArialMT-53" transform="scale(0.015625)"/>
       </defs>
       <use xlink:href="#ArialMT-53"/>
       <use x="66.699219" xlink:href="#ArialMT-41"/>
       <use x="126.023438" xlink:href="#ArialMT-56"/>
       <use x="192.722656" xlink:href="#ArialMT-49"/>
      </g>
     </g>
    </g>
    <g id="xtick_9">
     <g id="line2d_17">
      <path clip-path="url(#p72bf713151)" d="M 420.783298 315 
L 420.783298 43.2 
" style="fill:none;stroke:#ffffff;stroke-linecap:round;"/>
     </g>
     <g id="line2d_18"/>
     <g id="text_9">
      <!-- VH -->
      <g style="fill:#262626;" transform="translate(422.181874 352.542802)rotate(-75)scale(0.2 -0.2)">
       <use xlink:href="#ArialMT-56"/>
       <use x="66.699219" xlink:href="#ArialMT-48"/>
      </g>
     </g>
    </g>
    <g id="xtick_10">
     <g id="line2d_19">
      <path clip-path="url(#p72bf713151)" d="M 450.275899 315 
L 450.275899 43.2 
" style="fill:none;stroke:#ffffff;stroke-linecap:round;"/>
     </g>
     <g id="line2d_20"/>
     <g id="text_10">
      <!-- slope -->
      <g style="fill:#262626;" transform="translate(449.083049 371.885466)rotate(-75)scale(0.2 -0.2)">
       <defs>
        <path d="M 197 991 
L 753 1078 
Q 800 744 1014 566 
Q 1228 388 1613 388 
Q 2000 388 2187 545 
Q 2375 703 2375 916 
Q 2375 1106 2209 1216 
Q 2094 1291 1634 1406 
Q 1016 1563 777 1677 
Q 538 1791 414 1992 
Q 291 2194 291 2438 
Q 291 2659 392 2848 
Q 494 3038 669 3163 
Q 800 3259 1026 3326 
Q 1253 3394 1513 3394 
Q 1903 3394 2198 3281 
Q 2494 3169 2634 2976 
Q 2775 2784 2828 2463 
L 2278 2388 
Q 2241 2644 2061 2787 
Q 1881 2931 1553 2931 
Q 1166 2931 1000 2803 
Q 834 2675 834 2503 
Q 834 2394 903 2306 
Q 972 2216 1119 2156 
Q 1203 2125 1616 2013 
Q 2213 1853 2448 1751 
Q 2684 1650 2818 1456 
Q 2953 1263 2953 975 
Q 2953 694 2789 445 
Q 2625 197 2315 61 
Q 2006 -75 1616 -75 
Q 969 -75 630 194 
Q 291 463 197 991 
z
" id="ArialMT-73" transform="scale(0.015625)"/>
        <path d="M 409 0 
L 409 4581 
L 972 4581 
L 972 0 
L 409 0 
z
" id="ArialMT-6c" transform="scale(0.015625)"/>
        <path d="M 213 1659 
Q 213 2581 725 3025 
Q 1153 3394 1769 3394 
Q 2453 3394 2887 2945 
Q 3322 2497 3322 1706 
Q 3322 1066 3130 698 
Q 2938 331 2570 128 
Q 2203 -75 1769 -75 
Q 1072 -75 642 372 
Q 213 819 213 1659 
z
M 791 1659 
Q 791 1022 1069 705 
Q 1347 388 1769 388 
Q 2188 388 2466 706 
Q 2744 1025 2744 1678 
Q 2744 2294 2464 2611 
Q 2184 2928 1769 2928 
Q 1347 2928 1069 2612 
Q 791 2297 791 1659 
z
" id="ArialMT-6f" transform="scale(0.015625)"/>
        <path d="M 422 -1272 
L 422 3319 
L 934 3319 
L 934 2888 
Q 1116 3141 1344 3267 
Q 1572 3394 1897 3394 
Q 2322 3394 2647 3175 
Q 2972 2956 3137 2557 
Q 3303 2159 3303 1684 
Q 3303 1175 3120 767 
Q 2938 359 2589 142 
Q 2241 -75 1856 -75 
Q 1575 -75 1351 44 
Q 1128 163 984 344 
L 984 -1272 
L 422 -1272 
z
M 931 1641 
Q 931 1000 1190 694 
Q 1450 388 1819 388 
Q 2194 388 2461 705 
Q 2728 1022 2728 1688 
Q 2728 2322 2467 2637 
Q 2206 2953 1844 2953 
Q 1484 2953 1207 2617 
Q 931 2281 931 1641 
z
" id="ArialMT-70" transform="scale(0.015625)"/>
       </defs>
       <use xlink:href="#ArialMT-73"/>
       <use x="50" xlink:href="#ArialMT-6c"/>
       <use x="72.216797" xlink:href="#ArialMT-6f"/>
       <use x="127.832031" xlink:href="#ArialMT-70"/>
       <use x="183.447266" xlink:href="#ArialMT-65"/>
      </g>
     </g>
    </g>
    <g id="xtick_11">
     <g id="line2d_21">
      <path clip-path="url(#p72bf713151)" d="M 479.768499 315 
L 479.768499 43.2 
" style="fill:none;stroke:#ffffff;stroke-linecap:round;"/>
     </g>
     <g id="line2d_22"/>
     <g id="text_11">
      <!-- blue -->
      <g style="fill:#262626;" transform="translate(479.869744 362.226208)rotate(-75)scale(0.2 -0.2)">
       <defs>
        <path d="M 2597 0 
L 2597 488 
Q 2209 -75 1544 -75 
Q 1250 -75 995 37 
Q 741 150 617 320 
Q 494 491 444 738 
Q 409 903 409 1263 
L 409 3319 
L 972 3319 
L 972 1478 
Q 972 1038 1006 884 
Q 1059 663 1231 536 
Q 1403 409 1656 409 
Q 1909 409 2131 539 
Q 2353 669 2445 892 
Q 2538 1116 2538 1541 
L 2538 3319 
L 3100 3319 
L 3100 0 
L 2597 0 
z
" id="ArialMT-75" transform="scale(0.015625)"/>
       </defs>
       <use xlink:href="#ArialMT-62"/>
       <use x="55.615234" xlink:href="#ArialMT-6c"/>
       <use x="77.832031" xlink:href="#ArialMT-75"/>
       <use x="133.447266" xlink:href="#ArialMT-65"/>
      </g>
     </g>
    </g>
    <g id="xtick_12">
     <g id="line2d_23">
      <path clip-path="url(#p72bf713151)" d="M 509.261099 315 
L 509.261099 43.2 
" style="fill:none;stroke:#ffffff;stroke-linecap:round;"/>
     </g>
     <g id="line2d_24"/>
     <g id="text_12">
      <!-- GNDVI -->
      <g style="fill:#262626;" transform="translate(506.058358 386.887502)rotate(-75)scale(0.2 -0.2)">
       <defs>
        <path d="M 2638 1797 
L 2638 2334 
L 4578 2338 
L 4578 638 
Q 4131 281 3656 101 
Q 3181 -78 2681 -78 
Q 2006 -78 1454 211 
Q 903 500 622 1047 
Q 341 1594 341 2269 
Q 341 2938 620 3517 
Q 900 4097 1425 4378 
Q 1950 4659 2634 4659 
Q 3131 4659 3532 4498 
Q 3934 4338 4162 4050 
Q 4391 3763 4509 3300 
L 3963 3150 
Q 3859 3500 3706 3700 
Q 3553 3900 3268 4020 
Q 2984 4141 2638 4141 
Q 2222 4141 1919 4014 
Q 1616 3888 1430 3681 
Q 1244 3475 1141 3228 
Q 966 2803 966 2306 
Q 966 1694 1177 1281 
Q 1388 869 1791 669 
Q 2194 469 2647 469 
Q 3041 469 3416 620 
Q 3791 772 3984 944 
L 3984 1797 
L 2638 1797 
z
" id="ArialMT-47" transform="scale(0.015625)"/>
       </defs>
       <use xlink:href="#ArialMT-47"/>
       <use x="77.783203" xlink:href="#ArialMT-4e"/>
       <use x="150" xlink:href="#ArialMT-44"/>
       <use x="222.216797" xlink:href="#ArialMT-56"/>
       <use x="288.916016" xlink:href="#ArialMT-49"/>
      </g>
     </g>
    </g>
    <g id="xtick_13">
     <g id="line2d_25">
      <path clip-path="url(#p72bf713151)" d="M 538.7537 315 
L 538.7537 43.2 
" style="fill:none;stroke:#ffffff;stroke-linecap:round;"/>
     </g>
     <g id="line2d_26"/>
     <g id="text_13">
      <!-- re3 -->
      <g style="fill:#262626;" transform="translate(540.007499 353.623431)rotate(-75)scale(0.2 -0.2)">
       <defs>
        <path d="M 269 1209 
L 831 1284 
Q 928 806 1161 595 
Q 1394 384 1728 384 
Q 2125 384 2398 659 
Q 2672 934 2672 1341 
Q 2672 1728 2419 1979 
Q 2166 2231 1775 2231 
Q 1616 2231 1378 2169 
L 1441 2663 
Q 1497 2656 1531 2656 
Q 1891 2656 2178 2843 
Q 2466 3031 2466 3422 
Q 2466 3731 2256 3934 
Q 2047 4138 1716 4138 
Q 1388 4138 1169 3931 
Q 950 3725 888 3313 
L 325 3413 
Q 428 3978 793 4289 
Q 1159 4600 1703 4600 
Q 2078 4600 2393 4439 
Q 2709 4278 2876 4000 
Q 3044 3722 3044 3409 
Q 3044 3113 2884 2869 
Q 2725 2625 2413 2481 
Q 2819 2388 3044 2092 
Q 3269 1797 3269 1353 
Q 3269 753 2831 336 
Q 2394 -81 1725 -81 
Q 1122 -81 723 278 
Q 325 638 269 1209 
z
" id="ArialMT-33" transform="scale(0.015625)"/>
       </defs>
       <use xlink:href="#ArialMT-72"/>
       <use x="33.300781" xlink:href="#ArialMT-65"/>
       <use x="88.916016" xlink:href="#ArialMT-33"/>
      </g>
     </g>
    </g>
    <g id="xtick_14">
     <g id="line2d_27">
      <path clip-path="url(#p72bf713151)" d="M 568.2463 315 
L 568.2463 43.2 
" style="fill:none;stroke:#ffffff;stroke-linecap:round;"/>
     </g>
     <g id="line2d_28"/>
     <g id="text_14">
      <!-- green -->
      <g style="fill:#262626;" transform="translate(566.395157 375.048583)rotate(-75)scale(0.2 -0.2)">
       <defs>
        <path d="M 319 -275 
L 866 -356 
Q 900 -609 1056 -725 
Q 1266 -881 1628 -881 
Q 2019 -881 2231 -725 
Q 2444 -569 2519 -288 
Q 2563 -116 2559 434 
Q 2191 0 1641 0 
Q 956 0 581 494 
Q 206 988 206 1678 
Q 206 2153 378 2554 
Q 550 2956 876 3175 
Q 1203 3394 1644 3394 
Q 2231 3394 2613 2919 
L 2613 3319 
L 3131 3319 
L 3131 450 
Q 3131 -325 2973 -648 
Q 2816 -972 2473 -1159 
Q 2131 -1347 1631 -1347 
Q 1038 -1347 672 -1080 
Q 306 -813 319 -275 
z
M 784 1719 
Q 784 1066 1043 766 
Q 1303 466 1694 466 
Q 2081 466 2343 764 
Q 2606 1063 2606 1700 
Q 2606 2309 2336 2618 
Q 2066 2928 1684 2928 
Q 1309 2928 1046 2623 
Q 784 2319 784 1719 
z
" id="ArialMT-67" transform="scale(0.015625)"/>
       </defs>
       <use xlink:href="#ArialMT-67"/>
       <use x="55.615234" xlink:href="#ArialMT-72"/>
       <use x="88.916016" xlink:href="#ArialMT-65"/>
       <use x="144.53125" xlink:href="#ArialMT-65"/>
       <use x="200.146484" xlink:href="#ArialMT-6e"/>
      </g>
     </g>
    </g>
    <g id="xtick_15">
     <g id="line2d_29">
      <path clip-path="url(#p72bf713151)" d="M 597.738901 315 
L 597.738901 43.2 
" style="fill:none;stroke:#ffffff;stroke-linecap:round;"/>
     </g>
     <g id="line2d_30"/>
     <g id="text_15">
      <!-- LAI -->
      <g style="fill:#262626;" transform="translate(598.848327 354.701042)rotate(-75)scale(0.2 -0.2)">
       <use xlink:href="#ArialMT-4c"/>
       <use x="55.615234" xlink:href="#ArialMT-41"/>
       <use x="122.314453" xlink:href="#ArialMT-49"/>
      </g>
     </g>
    </g>
    <g id="xtick_16">
     <g id="line2d_31">
      <path clip-path="url(#p72bf713151)" d="M 627.231501 315 
L 627.231501 43.2 
" style="fill:none;stroke:#ffffff;stroke-linecap:round;"/>
     </g>
     <g id="line2d_32"/>
     <g id="text_16">
      <!-- NDVI -->
      <g style="fill:#262626;" transform="translate(626.041886 371.861318)rotate(-75)scale(0.2 -0.2)">
       <use xlink:href="#ArialMT-4e"/>
       <use x="72.216797" xlink:href="#ArialMT-44"/>
       <use x="144.433594" xlink:href="#ArialMT-56"/>
       <use x="211.132812" xlink:href="#ArialMT-49"/>
      </g>
     </g>
    </g>
    <g id="xtick_17">
     <g id="line2d_33">
      <path clip-path="url(#p72bf713151)" d="M 656.724101 315 
L 656.724101 43.2 
" style="fill:none;stroke:#ffffff;stroke-linecap:round;"/>
     </g>
     <g id="line2d_34"/>
     <g id="text_17">
      <!-- VVVH -->
      <g style="fill:#262626;" transform="translate(654.669869 378.31491)rotate(-75)scale(0.2 -0.2)">
       <use xlink:href="#ArialMT-56"/>
       <use x="66.699219" xlink:href="#ArialMT-56"/>
       <use x="133.398438" xlink:href="#ArialMT-56"/>
       <use x="200.097656" xlink:href="#ArialMT-48"/>
      </g>
     </g>
    </g>
    <g id="xtick_18">
     <g id="line2d_35">
      <path clip-path="url(#p72bf713151)" d="M 686.216702 315 
L 686.216702 43.2 
" style="fill:none;stroke:#ffffff;stroke-linecap:round;"/>
     </g>
     <g id="line2d_36"/>
     <g id="text_18">
      <!-- swir2 -->
      <g style="fill:#262626;" transform="translate(685.17146 370.783707)rotate(-75)scale(0.2 -0.2)">
       <defs>
        <path d="M 1034 0 
L 19 3319 
L 600 3319 
L 1128 1403 
L 1325 691 
Q 1338 744 1497 1375 
L 2025 3319 
L 2603 3319 
L 3100 1394 
L 3266 759 
L 3456 1400 
L 4025 3319 
L 4572 3319 
L 3534 0 
L 2950 0 
L 2422 1988 
L 2294 2553 
L 1622 0 
L 1034 0 
z
" id="ArialMT-77" transform="scale(0.015625)"/>
       </defs>
       <use xlink:href="#ArialMT-73"/>
       <use x="50" xlink:href="#ArialMT-77"/>
       <use x="122.216797" xlink:href="#ArialMT-69"/>
       <use x="144.433594" xlink:href="#ArialMT-72"/>
       <use x="177.734375" xlink:href="#ArialMT-32"/>
      </g>
     </g>
    </g>
    <g id="xtick_19">
     <g id="line2d_37">
      <path clip-path="url(#p72bf713151)" d="M 715.709302 315 
L 715.709302 43.2 
" style="fill:none;stroke:#ffffff;stroke-linecap:round;"/>
     </g>
     <g id="line2d_38"/>
     <g id="text_19">
      <!-- red -->
      <g style="fill:#262626;" transform="translate(716.963101 353.623431)rotate(-75)scale(0.2 -0.2)">
       <defs>
        <path d="M 2575 0 
L 2575 419 
Q 2259 -75 1647 -75 
Q 1250 -75 917 144 
Q 584 363 401 755 
Q 219 1147 219 1656 
Q 219 2153 384 2558 
Q 550 2963 881 3178 
Q 1213 3394 1622 3394 
Q 1922 3394 2156 3267 
Q 2391 3141 2538 2938 
L 2538 4581 
L 3097 4581 
L 3097 0 
L 2575 0 
z
M 797 1656 
Q 797 1019 1065 703 
Q 1334 388 1700 388 
Q 2069 388 2326 689 
Q 2584 991 2584 1609 
Q 2584 2291 2321 2609 
Q 2059 2928 1675 2928 
Q 1300 2928 1048 2622 
Q 797 2316 797 1656 
z
" id="ArialMT-64" transform="scale(0.015625)"/>
       </defs>
       <use xlink:href="#ArialMT-72"/>
       <use x="33.300781" xlink:href="#ArialMT-65"/>
       <use x="88.916016" xlink:href="#ArialMT-64"/>
      </g>
     </g>
    </g>
    <g id="xtick_20">
     <g id="line2d_39">
      <path clip-path="url(#p72bf713151)" d="M 745.201903 315 
L 745.201903 43.2 
" style="fill:none;stroke:#ffffff;stroke-linecap:round;"/>
     </g>
     <g id="line2d_40"/>
     <g id="text_20">
      <!-- swir1 -->
      <g style="fill:#262626;" transform="translate(744.15666 370.783707)rotate(-75)scale(0.2 -0.2)">
       <use xlink:href="#ArialMT-73"/>
       <use x="50" xlink:href="#ArialMT-77"/>
       <use x="122.216797" xlink:href="#ArialMT-69"/>
       <use x="144.433594" xlink:href="#ArialMT-72"/>
       <use x="177.734375" xlink:href="#ArialMT-31"/>
      </g>
     </g>
    </g>
    <g id="xtick_21">
     <g id="line2d_41">
      <path clip-path="url(#p72bf713151)" d="M 774.694503 315 
L 774.694503 43.2 
" style="fill:none;stroke:#ffffff;stroke-linecap:round;"/>
     </g>
     <g id="line2d_42"/>
     <g id="text_21">
      <!-- EVI -->
      <g style="fill:#262626;" transform="translate(775.516802 356.84419)rotate(-75)scale(0.2 -0.2)">
       <use xlink:href="#ArialMT-45"/>
       <use x="66.699219" xlink:href="#ArialMT-56"/>
       <use x="133.398438" xlink:href="#ArialMT-49"/>
      </g>
     </g>
    </g>
    <g id="xtick_22">
     <g id="line2d_43">
      <path clip-path="url(#p72bf713151)" d="M 804.187104 315 
L 804.187104 43.2 
" style="fill:none;stroke:#ffffff;stroke-linecap:round;"/>
     </g>
     <g id="line2d_44"/>
     <g id="text_22">
      <!-- NDII -->
      <g style="fill:#262626;" transform="translate(804.004861 364.342189)rotate(-75)scale(0.2 -0.2)">
       <use xlink:href="#ArialMT-4e"/>
       <use x="72.216797" xlink:href="#ArialMT-44"/>
       <use x="144.433594" xlink:href="#ArialMT-49"/>
       <use x="172.216797" xlink:href="#ArialMT-49"/>
      </g>
     </g>
    </g>
    <g id="xtick_23">
     <g id="line2d_45">
      <path clip-path="url(#p72bf713151)" d="M 833.679704 315 
L 833.679704 43.2 
" style="fill:none;stroke:#ffffff;stroke-linecap:round;"/>
     </g>
     <g id="line2d_46"/>
     <g id="text_23">
      <!-- aspect -->
      <g style="fill:#262626;" transform="translate(831.048791 382.619317)rotate(-75)scale(0.2 -0.2)">
       <defs>
        <path d="M 2588 409 
Q 2275 144 1986 34 
Q 1697 -75 1366 -75 
Q 819 -75 525 192 
Q 231 459 231 875 
Q 231 1119 342 1320 
Q 453 1522 633 1644 
Q 813 1766 1038 1828 
Q 1203 1872 1538 1913 
Q 2219 1994 2541 2106 
Q 2544 2222 2544 2253 
Q 2544 2597 2384 2738 
Q 2169 2928 1744 2928 
Q 1347 2928 1158 2789 
Q 969 2650 878 2297 
L 328 2372 
Q 403 2725 575 2942 
Q 747 3159 1072 3276 
Q 1397 3394 1825 3394 
Q 2250 3394 2515 3294 
Q 2781 3194 2906 3042 
Q 3031 2891 3081 2659 
Q 3109 2516 3109 2141 
L 3109 1391 
Q 3109 606 3145 398 
Q 3181 191 3288 0 
L 2700 0 
Q 2613 175 2588 409 
z
M 2541 1666 
Q 2234 1541 1622 1453 
Q 1275 1403 1131 1340 
Q 988 1278 909 1158 
Q 831 1038 831 891 
Q 831 666 1001 516 
Q 1172 366 1500 366 
Q 1825 366 2078 508 
Q 2331 650 2450 897 
Q 2541 1088 2541 1459 
L 2541 1666 
z
" id="ArialMT-61" transform="scale(0.015625)"/>
        <path d="M 2588 1216 
L 3141 1144 
Q 3050 572 2676 248 
Q 2303 -75 1759 -75 
Q 1078 -75 664 370 
Q 250 816 250 1647 
Q 250 2184 428 2587 
Q 606 2991 970 3192 
Q 1334 3394 1763 3394 
Q 2303 3394 2647 3120 
Q 2991 2847 3088 2344 
L 2541 2259 
Q 2463 2594 2264 2762 
Q 2066 2931 1784 2931 
Q 1359 2931 1093 2626 
Q 828 2322 828 1663 
Q 828 994 1084 691 
Q 1341 388 1753 388 
Q 2084 388 2306 591 
Q 2528 794 2588 1216 
z
" id="ArialMT-63" transform="scale(0.015625)"/>
        <path d="M 1650 503 
L 1731 6 
Q 1494 -44 1306 -44 
Q 1000 -44 831 53 
Q 663 150 594 308 
Q 525 466 525 972 
L 525 2881 
L 113 2881 
L 113 3319 
L 525 3319 
L 525 4141 
L 1084 4478 
L 1084 3319 
L 1650 3319 
L 1650 2881 
L 1084 2881 
L 1084 941 
Q 1084 700 1114 631 
Q 1144 563 1211 522 
Q 1278 481 1403 481 
Q 1497 481 1650 503 
z
" id="ArialMT-74" transform="scale(0.015625)"/>
       </defs>
       <use xlink:href="#ArialMT-61"/>
       <use x="55.615234" xlink:href="#ArialMT-73"/>
       <use x="105.615234" xlink:href="#ArialMT-70"/>
       <use x="161.230469" xlink:href="#ArialMT-65"/>
       <use x="216.845703" xlink:href="#ArialMT-63"/>
       <use x="266.845703" xlink:href="#ArialMT-74"/>
      </g>
     </g>
    </g>
    <g id="xtick_24">
     <g id="line2d_47">
      <path clip-path="url(#p72bf713151)" d="M 863.172304 315 
L 863.172304 43.2 
" style="fill:none;stroke:#ffffff;stroke-linecap:round;"/>
     </g>
     <g id="line2d_48"/>
     <g id="text_24">
      <!-- VV -->
      <g style="fill:#262626;" transform="translate(864.713635 351.477265)rotate(-75)scale(0.2 -0.2)">
       <use xlink:href="#ArialMT-56"/>
       <use x="66.699219" xlink:href="#ArialMT-56"/>
      </g>
     </g>
    </g>
    <g id="xtick_25">
     <g id="line2d_49">
      <path clip-path="url(#p72bf713151)" d="M 892.664905 315 
L 892.664905 43.2 
" style="fill:none;stroke:#ffffff;stroke-linecap:round;"/>
     </g>
     <g id="line2d_50"/>
     <g id="text_25">
      <!-- MIRNIR -->
      <g style="fill:#262626;" transform="translate(888.457622 394.385501)rotate(-75)scale(0.2 -0.2)">
       <use xlink:href="#ArialMT-4d"/>
       <use x="83.300781" xlink:href="#ArialMT-49"/>
       <use x="111.083984" xlink:href="#ArialMT-52"/>
       <use x="183.300781" xlink:href="#ArialMT-4e"/>
       <use x="255.517578" xlink:href="#ArialMT-49"/>
       <use x="283.300781" xlink:href="#ArialMT-52"/>
      </g>
     </g>
    </g>
    <g id="xtick_26">
     <g id="line2d_51">
      <path clip-path="url(#p72bf713151)" d="M 922.157505 315 
L 922.157505 43.2 
" style="fill:none;stroke:#ffffff;stroke-linecap:round;"/>
     </g>
     <g id="line2d_52"/>
     <g id="text_26">
      <!-- ARVI -->
      <g style="fill:#262626;" transform="translate(921.155939 370.457707)rotate(-75)scale(0.2 -0.2)">
       <use xlink:href="#ArialMT-41"/>
       <use x="66.699219" xlink:href="#ArialMT-52"/>
       <use x="137.166016" xlink:href="#ArialMT-56"/>
       <use x="203.865234" xlink:href="#ArialMT-49"/>
      </g>
     </g>
    </g>
   </g>
   <g id="matplotlib.axis_2">
    <g id="ytick_1">
     <g id="line2d_53">
      <path clip-path="url(#p72bf713151)" d="M 135 315 
L 972 315 
" style="fill:none;stroke:#ffffff;stroke-linecap:round;"/>
     </g>
     <g id="line2d_54"/>
     <g id="text_27">
      <!-- 0 -->
      <g style="fill:#262626;" transform="translate(116.878125 322.157812)scale(0.2 -0.2)">
       <defs>
        <path d="M 266 2259 
Q 266 3072 433 3567 
Q 600 4063 929 4331 
Q 1259 4600 1759 4600 
Q 2128 4600 2406 4451 
Q 2684 4303 2865 4023 
Q 3047 3744 3150 3342 
Q 3253 2941 3253 2259 
Q 3253 1453 3087 958 
Q 2922 463 2592 192 
Q 2263 -78 1759 -78 
Q 1097 -78 719 397 
Q 266 969 266 2259 
z
M 844 2259 
Q 844 1131 1108 757 
Q 1372 384 1759 384 
Q 2147 384 2411 759 
Q 2675 1134 2675 2259 
Q 2675 3391 2411 3762 
Q 2147 4134 1753 4134 
Q 1366 4134 1134 3806 
Q 844 3388 844 2259 
z
" id="ArialMT-30" transform="scale(0.015625)"/>
       </defs>
       <use xlink:href="#ArialMT-30"/>
      </g>
     </g>
    </g>
    <g id="ytick_2">
     <g id="line2d_55">
      <path clip-path="url(#p72bf713151)" d="M 135 276.179193 
L 972 276.179193 
" style="fill:none;stroke:#ffffff;stroke-linecap:round;"/>
     </g>
     <g id="line2d_56"/>
     <g id="text_28">
      <!-- 2000 -->
      <g style="fill:#262626;" transform="translate(83.5125 283.337005)scale(0.2 -0.2)">
       <use xlink:href="#ArialMT-32"/>
       <use x="55.615234" xlink:href="#ArialMT-30"/>
       <use x="111.230469" xlink:href="#ArialMT-30"/>
       <use x="166.845703" xlink:href="#ArialMT-30"/>
      </g>
     </g>
    </g>
    <g id="ytick_3">
     <g id="line2d_57">
      <path clip-path="url(#p72bf713151)" d="M 135 237.358385 
L 972 237.358385 
" style="fill:none;stroke:#ffffff;stroke-linecap:round;"/>
     </g>
     <g id="line2d_58"/>
     <g id="text_29">
      <!-- 4000 -->
      <g style="fill:#262626;" transform="translate(83.5125 244.516198)scale(0.2 -0.2)">
       <defs>
        <path d="M 2069 0 
L 2069 1097 
L 81 1097 
L 81 1613 
L 2172 4581 
L 2631 4581 
L 2631 1613 
L 3250 1613 
L 3250 1097 
L 2631 1097 
L 2631 0 
L 2069 0 
z
M 2069 1613 
L 2069 3678 
L 634 1613 
L 2069 1613 
z
" id="ArialMT-34" transform="scale(0.015625)"/>
       </defs>
       <use xlink:href="#ArialMT-34"/>
       <use x="55.615234" xlink:href="#ArialMT-30"/>
       <use x="111.230469" xlink:href="#ArialMT-30"/>
       <use x="166.845703" xlink:href="#ArialMT-30"/>
      </g>
     </g>
    </g>
    <g id="ytick_4">
     <g id="line2d_59">
      <path clip-path="url(#p72bf713151)" d="M 135 198.537578 
L 972 198.537578 
" style="fill:none;stroke:#ffffff;stroke-linecap:round;"/>
     </g>
     <g id="line2d_60"/>
     <g id="text_30">
      <!-- 6000 -->
      <g style="fill:#262626;" transform="translate(83.5125 205.695391)scale(0.2 -0.2)">
       <defs>
        <path d="M 3184 3459 
L 2625 3416 
Q 2550 3747 2413 3897 
Q 2184 4138 1850 4138 
Q 1581 4138 1378 3988 
Q 1113 3794 959 3422 
Q 806 3050 800 2363 
Q 1003 2672 1297 2822 
Q 1591 2972 1913 2972 
Q 2475 2972 2870 2558 
Q 3266 2144 3266 1488 
Q 3266 1056 3080 686 
Q 2894 316 2569 119 
Q 2244 -78 1831 -78 
Q 1128 -78 684 439 
Q 241 956 241 2144 
Q 241 3472 731 4075 
Q 1159 4600 1884 4600 
Q 2425 4600 2770 4297 
Q 3116 3994 3184 3459 
z
M 888 1484 
Q 888 1194 1011 928 
Q 1134 663 1356 523 
Q 1578 384 1822 384 
Q 2178 384 2434 671 
Q 2691 959 2691 1453 
Q 2691 1928 2437 2201 
Q 2184 2475 1800 2475 
Q 1419 2475 1153 2201 
Q 888 1928 888 1484 
z
" id="ArialMT-36" transform="scale(0.015625)"/>
       </defs>
       <use xlink:href="#ArialMT-36"/>
       <use x="55.615234" xlink:href="#ArialMT-30"/>
       <use x="111.230469" xlink:href="#ArialMT-30"/>
       <use x="166.845703" xlink:href="#ArialMT-30"/>
      </g>
     </g>
    </g>
    <g id="ytick_5">
     <g id="line2d_61">
      <path clip-path="url(#p72bf713151)" d="M 135 159.716771 
L 972 159.716771 
" style="fill:none;stroke:#ffffff;stroke-linecap:round;"/>
     </g>
     <g id="line2d_62"/>
     <g id="text_31">
      <!-- 8000 -->
      <g style="fill:#262626;" transform="translate(83.5125 166.874583)scale(0.2 -0.2)">
       <defs>
        <path d="M 1131 2484 
Q 781 2613 612 2850 
Q 444 3088 444 3419 
Q 444 3919 803 4259 
Q 1163 4600 1759 4600 
Q 2359 4600 2725 4251 
Q 3091 3903 3091 3403 
Q 3091 3084 2923 2848 
Q 2756 2613 2416 2484 
Q 2838 2347 3058 2040 
Q 3278 1734 3278 1309 
Q 3278 722 2862 322 
Q 2447 -78 1769 -78 
Q 1091 -78 675 323 
Q 259 725 259 1325 
Q 259 1772 486 2073 
Q 713 2375 1131 2484 
z
M 1019 3438 
Q 1019 3113 1228 2906 
Q 1438 2700 1772 2700 
Q 2097 2700 2305 2904 
Q 2513 3109 2513 3406 
Q 2513 3716 2298 3927 
Q 2084 4138 1766 4138 
Q 1444 4138 1231 3931 
Q 1019 3725 1019 3438 
z
M 838 1322 
Q 838 1081 952 856 
Q 1066 631 1291 507 
Q 1516 384 1775 384 
Q 2178 384 2440 643 
Q 2703 903 2703 1303 
Q 2703 1709 2433 1975 
Q 2163 2241 1756 2241 
Q 1359 2241 1098 1978 
Q 838 1716 838 1322 
z
" id="ArialMT-38" transform="scale(0.015625)"/>
       </defs>
       <use xlink:href="#ArialMT-38"/>
       <use x="55.615234" xlink:href="#ArialMT-30"/>
       <use x="111.230469" xlink:href="#ArialMT-30"/>
       <use x="166.845703" xlink:href="#ArialMT-30"/>
      </g>
     </g>
    </g>
    <g id="ytick_6">
     <g id="line2d_63">
      <path clip-path="url(#p72bf713151)" d="M 135 120.895964 
L 972 120.895964 
" style="fill:none;stroke:#ffffff;stroke-linecap:round;"/>
     </g>
     <g id="line2d_64"/>
     <g id="text_32">
      <!-- 10000 -->
      <g style="fill:#262626;" transform="translate(72.390625 128.053776)scale(0.2 -0.2)">
       <use xlink:href="#ArialMT-31"/>
       <use x="55.615234" xlink:href="#ArialMT-30"/>
       <use x="111.230469" xlink:href="#ArialMT-30"/>
       <use x="166.845703" xlink:href="#ArialMT-30"/>
       <use x="222.460938" xlink:href="#ArialMT-30"/>
      </g>
     </g>
    </g>
    <g id="ytick_7">
     <g id="line2d_65">
      <path clip-path="url(#p72bf713151)" d="M 135 82.075156 
L 972 82.075156 
" style="fill:none;stroke:#ffffff;stroke-linecap:round;"/>
     </g>
     <g id="line2d_66"/>
     <g id="text_33">
      <!-- 12000 -->
      <g style="fill:#262626;" transform="translate(72.390625 89.232969)scale(0.2 -0.2)">
       <use xlink:href="#ArialMT-31"/>
       <use x="55.615234" xlink:href="#ArialMT-32"/>
       <use x="111.230469" xlink:href="#ArialMT-30"/>
       <use x="166.845703" xlink:href="#ArialMT-30"/>
       <use x="222.460938" xlink:href="#ArialMT-30"/>
      </g>
     </g>
    </g>
    <g id="ytick_8">
     <g id="line2d_67">
      <path clip-path="url(#p72bf713151)" d="M 135 43.254349 
L 972 43.254349 
" style="fill:none;stroke:#ffffff;stroke-linecap:round;"/>
     </g>
     <g id="line2d_68"/>
     <g id="text_34">
      <!-- 14000 -->
      <g style="fill:#262626;" transform="translate(72.390625 50.412162)scale(0.2 -0.2)">
       <use xlink:href="#ArialMT-31"/>
       <use x="55.615234" xlink:href="#ArialMT-34"/>
       <use x="111.230469" xlink:href="#ArialMT-30"/>
       <use x="166.845703" xlink:href="#ArialMT-30"/>
       <use x="222.460938" xlink:href="#ArialMT-30"/>
      </g>
     </g>
    </g>
    <g id="text_35">
     <!-- Shap values -->
     <g style="fill:#262626;" transform="translate(64.415625 234.135938)rotate(-90)scale(0.2 -0.2)">
      <defs>
       <path d="M 422 0 
L 422 4581 
L 984 4581 
L 984 2938 
Q 1378 3394 1978 3394 
Q 2347 3394 2619 3248 
Q 2891 3103 3008 2847 
Q 3125 2591 3125 2103 
L 3125 0 
L 2563 0 
L 2563 2103 
Q 2563 2525 2380 2717 
Q 2197 2909 1863 2909 
Q 1613 2909 1392 2779 
Q 1172 2650 1078 2428 
Q 984 2206 984 1816 
L 984 0 
L 422 0 
z
" id="ArialMT-68" transform="scale(0.015625)"/>
       <path id="ArialMT-20" transform="scale(0.015625)"/>
       <path d="M 1344 0 
L 81 3319 
L 675 3319 
L 1388 1331 
Q 1503 1009 1600 663 
Q 1675 925 1809 1294 
L 2547 3319 
L 3125 3319 
L 1869 0 
L 1344 0 
z
" id="ArialMT-76" transform="scale(0.015625)"/>
      </defs>
      <use xlink:href="#ArialMT-53"/>
      <use x="66.699219" xlink:href="#ArialMT-68"/>
      <use x="122.314453" xlink:href="#ArialMT-61"/>
      <use x="177.929688" xlink:href="#ArialMT-70"/>
      <use x="233.544922" xlink:href="#ArialMT-20"/>
      <use x="261.328125" xlink:href="#ArialMT-76"/>
      <use x="311.328125" xlink:href="#ArialMT-61"/>
      <use x="366.943359" xlink:href="#ArialMT-6c"/>
      <use x="389.160156" xlink:href="#ArialMT-75"/>
      <use x="444.775391" xlink:href="#ArialMT-65"/>
      <use x="500.390625" xlink:href="#ArialMT-73"/>
     </g>
    </g>
   </g>
   <g id="patch_3">
    <path clip-path="url(#p72bf713151)" d="M 173.045455 315 
L 196.639535 315 
L 196.639535 90.732196 
L 173.045455 90.732196 
z
" style="fill:#008080;"/>
   </g>
   <g id="patch_4">
    <path clip-path="url(#p72bf713151)" d="M 202.538055 315 
L 226.132135 315 
L 226.132135 118.450253 
L 202.538055 118.450253 
z
" style="fill:#008080;"/>
   </g>
   <g id="patch_5">
    <path clip-path="url(#p72bf713151)" d="M 232.030655 315 
L 255.624736 315 
L 255.624736 139.918159 
L 232.030655 139.918159 
z
" style="fill:#008080;"/>
   </g>
   <g id="patch_6">
    <path clip-path="url(#p72bf713151)" d="M 261.523256 315 
L 285.117336 315 
L 285.117336 140.578113 
L 261.523256 140.578113 
z
" style="fill:#008080;"/>
   </g>
   <g id="patch_7">
    <path clip-path="url(#p72bf713151)" d="M 291.015856 315 
L 314.609937 315 
L 314.609937 174.138701 
L 291.015856 174.138701 
z
" style="fill:#008080;"/>
   </g>
   <g id="patch_8">
    <path clip-path="url(#p72bf713151)" d="M 320.508457 315 
L 344.102537 315 
L 344.102537 174.293984 
L 320.508457 174.293984 
z
" style="fill:#008080;"/>
   </g>
   <g id="patch_9">
    <path clip-path="url(#p72bf713151)" d="M 350.001057 315 
L 373.595137 315 
L 373.595137 175.128631 
L 350.001057 175.128631 
z
" style="fill:#008080;"/>
   </g>
   <g id="patch_10">
    <path clip-path="url(#p72bf713151)" d="M 379.493658 315 
L 403.087738 315 
L 403.087738 222.392964 
L 379.493658 222.392964 
z
" style="fill:#008080;"/>
   </g>
   <g id="patch_11">
    <path clip-path="url(#p72bf713151)" d="M 408.986258 315 
L 432.580338 315 
L 432.580338 224.858086 
L 408.986258 224.858086 
z
" style="fill:#008080;"/>
   </g>
   <g id="patch_12">
    <path clip-path="url(#p72bf713151)" d="M 438.478858 315 
L 462.072939 315 
L 462.072939 234.136258 
L 438.478858 234.136258 
z
" style="fill:#008080;"/>
   </g>
   <g id="patch_13">
    <path clip-path="url(#p72bf713151)" d="M 467.971459 315 
L 491.565539 315 
L 491.565539 244.637287 
L 467.971459 244.637287 
z
" style="fill:#008080;"/>
   </g>
   <g id="patch_14">
    <path clip-path="url(#p72bf713151)" d="M 497.464059 315 
L 521.05814 315 
L 521.05814 244.870212 
L 497.464059 244.870212 
z
" style="fill:#008080;"/>
   </g>
   <g id="patch_15">
    <path clip-path="url(#p72bf713151)" d="M 526.95666 315 
L 550.55074 315 
L 550.55074 246.655969 
L 526.95666 246.655969 
z
" style="fill:#008080;"/>
   </g>
   <g id="patch_16">
    <path clip-path="url(#p72bf713151)" d="M 556.44926 315 
L 580.04334 315 
L 580.04334 250.111021 
L 556.44926 250.111021 
z
" style="fill:#008080;"/>
   </g>
   <g id="patch_17">
    <path clip-path="url(#p72bf713151)" d="M 585.94186 315 
L 609.535941 315 
L 609.535941 258.127517 
L 585.94186 258.127517 
z
" style="fill:#008080;"/>
   </g>
   <g id="patch_18">
    <path clip-path="url(#p72bf713151)" d="M 615.434461 315 
L 639.028541 315 
L 639.028541 259.350373 
L 615.434461 259.350373 
z
" style="fill:#008080;"/>
   </g>
   <g id="patch_19">
    <path clip-path="url(#p72bf713151)" d="M 644.927061 315 
L 668.521142 315 
L 668.521142 260.747922 
L 644.927061 260.747922 
z
" style="fill:#008080;"/>
   </g>
   <g id="patch_20">
    <path clip-path="url(#p72bf713151)" d="M 674.419662 315 
L 698.013742 315 
L 698.013742 260.903205 
L 674.419662 260.903205 
z
" style="fill:#008080;"/>
   </g>
   <g id="patch_21">
    <path clip-path="url(#p72bf713151)" d="M 703.912262 315 
L 727.506342 315 
L 727.506342 261.058488 
L 703.912262 261.058488 
z
" style="fill:#008080;"/>
   </g>
   <g id="patch_22">
    <path clip-path="url(#p72bf713151)" d="M 733.404863 315 
L 756.998943 315 
L 756.998943 262.611321 
L 733.404863 262.611321 
z
" style="fill:#008080;"/>
   </g>
   <g id="patch_23">
    <path clip-path="url(#p72bf713151)" d="M 762.897463 315 
L 786.491543 315 
L 786.491543 264.04769 
L 762.897463 264.04769 
z
" style="fill:#008080;"/>
   </g>
   <g id="patch_24">
    <path clip-path="url(#p72bf713151)" d="M 792.390063 315 
L 815.984144 315 
L 815.984144 266.085783 
L 792.390063 266.085783 
z
" style="fill:#008080;"/>
   </g>
   <g id="patch_25">
    <path clip-path="url(#p72bf713151)" d="M 821.882664 315 
L 845.476744 315 
L 845.476744 277.537921 
L 821.882664 277.537921 
z
" style="fill:#008080;"/>
   </g>
   <g id="patch_26">
    <path clip-path="url(#p72bf713151)" d="M 851.375264 315 
L 874.969345 315 
L 874.969345 278.683135 
L 851.375264 278.683135 
z
" style="fill:#008080;"/>
   </g>
   <g id="patch_27">
    <path clip-path="url(#p72bf713151)" d="M 880.867865 315 
L 904.461945 315 
L 904.461945 286.097909 
L 880.867865 286.097909 
z
" style="fill:#008080;"/>
   </g>
   <g id="patch_28">
    <path clip-path="url(#p72bf713151)" d="M 910.360465 315 
L 933.954545 315 
L 933.954545 287.767204 
L 910.360465 287.767204 
z
" style="fill:#008080;"/>
   </g>
   <g id="LineCollection_1">
    <path clip-path="url(#p72bf713151)" d="M 184.842495 125.321536 
L 184.842495 56.142857 
" style="fill:none;stroke:#000000;stroke-width:1.75;"/>
    <path clip-path="url(#p72bf713151)" d="M 214.335095 140.170494 
L 214.335095 96.730011 
" style="fill:none;stroke:#000000;stroke-width:1.75;"/>
    <path clip-path="url(#p72bf713151)" d="M 243.827696 201.953809 
L 243.827696 77.882509 
" style="fill:none;stroke:#000000;stroke-width:1.75;"/>
    <path clip-path="url(#p72bf713151)" d="M 273.320296 167.86914 
L 273.320296 113.287085 
" style="fill:none;stroke:#000000;stroke-width:1.75;"/>
    <path clip-path="url(#p72bf713151)" d="M 302.812896 215.017011 
L 302.812896 133.260391 
" style="fill:none;stroke:#000000;stroke-width:1.75;"/>
    <path clip-path="url(#p72bf713151)" d="M 332.305497 209.446225 
L 332.305497 139.141743 
" style="fill:none;stroke:#000000;stroke-width:1.75;"/>
    <path clip-path="url(#p72bf713151)" d="M 361.798097 185.920816 
L 361.798097 164.336447 
" style="fill:none;stroke:#000000;stroke-width:1.75;"/>
    <path clip-path="url(#p72bf713151)" d="M 391.290698 270.666638 
L 391.290698 174.11929 
" style="fill:none;stroke:#000000;stroke-width:1.75;"/>
    <path clip-path="url(#p72bf713151)" d="M 420.783298 234.796212 
L 420.783298 214.919959 
" style="fill:none;stroke:#000000;stroke-width:1.75;"/>
    <path clip-path="url(#p72bf713151)" d="M 450.275899 253.91546 
L 450.275899 214.357057 
" style="fill:none;stroke:#000000;stroke-width:1.75;"/>
    <path clip-path="url(#p72bf713151)" d="M 479.768499 282.565216 
L 479.768499 206.709358 
" style="fill:none;stroke:#000000;stroke-width:1.75;"/>
    <path clip-path="url(#p72bf713151)" d="M 509.261099 291.280487 
L 509.261099 198.459937 
" style="fill:none;stroke:#000000;stroke-width:1.75;"/>
    <path clip-path="url(#p72bf713151)" d="M 538.7537 293.027423 
L 538.7537 200.284515 
" style="fill:none;stroke:#000000;stroke-width:1.75;"/>
    <path clip-path="url(#p72bf713151)" d="M 568.2463 275.790985 
L 568.2463 224.431057 
" style="fill:none;stroke:#000000;stroke-width:1.75;"/>
    <path clip-path="url(#p72bf713151)" d="M 597.738901 267.328049 
L 597.738901 248.926986 
" style="fill:none;stroke:#000000;stroke-width:1.75;"/>
    <path clip-path="url(#p72bf713151)" d="M 627.231501 289.9994 
L 627.231501 228.701345 
" style="fill:none;stroke:#000000;stroke-width:1.75;"/>
    <path clip-path="url(#p72bf713151)" d="M 656.724101 280.701817 
L 656.724101 240.794027 
" style="fill:none;stroke:#000000;stroke-width:1.75;"/>
    <path clip-path="url(#p72bf713151)" d="M 686.216702 287.223712 
L 686.216702 234.582698 
" style="fill:none;stroke:#000000;stroke-width:1.75;"/>
    <path clip-path="url(#p72bf713151)" d="M 715.709302 290.601123 
L 715.709302 231.515854 
" style="fill:none;stroke:#000000;stroke-width:1.75;"/>
    <path clip-path="url(#p72bf713151)" d="M 745.201903 273.927586 
L 745.201903 251.295055 
" style="fill:none;stroke:#000000;stroke-width:1.75;"/>
    <path clip-path="url(#p72bf713151)" d="M 774.694503 285.593238 
L 774.694503 242.502142 
" style="fill:none;stroke:#000000;stroke-width:1.75;"/>
    <path clip-path="url(#p72bf713151)" d="M 804.187104 285.845574 
L 804.187104 246.325992 
" style="fill:none;stroke:#000000;stroke-width:1.75;"/>
    <path clip-path="url(#p72bf713151)" d="M 833.679704 284.71977 
L 833.679704 270.356072 
" style="fill:none;stroke:#000000;stroke-width:1.75;"/>
    <path clip-path="url(#p72bf713151)" d="M 863.172304 287.12666 
L 863.172304 270.239609 
" style="fill:none;stroke:#000000;stroke-width:1.75;"/>
    <path clip-path="url(#p72bf713151)" d="M 892.664905 289.552961 
L 892.664905 282.642857 
" style="fill:none;stroke:#000000;stroke-width:1.75;"/>
    <path clip-path="url(#p72bf713151)" d="M 922.157505 295.725469 
L 922.157505 279.808938 
" style="fill:none;stroke:#000000;stroke-width:1.75;"/>
   </g>
   <g id="patch_29">
    <path d="M 135 315 
L 135 43.2 
" style="fill:none;"/>
   </g>
   <g id="patch_30">
    <path d="M 972 315 
L 972 43.2 
" style="fill:none;"/>
   </g>
   <g id="patch_31">
    <path d="M 135 315 
L 972 315 
" style="fill:none;"/>
   </g>
   <g id="patch_32">
    <path d="M 135 43.2 
L 972 43.2 
" style="fill:none;"/>
   </g>
   <g id="text_36">
    <!-- All predictors -->
    <g style="fill:#262626;" transform="translate(495.704687 37.2)scale(0.2 -0.2)">
     <use xlink:href="#ArialMT-41"/>
     <use x="66.699219" xlink:href="#ArialMT-6c"/>
     <use x="88.916016" xlink:href="#ArialMT-6c"/>
     <use x="111.132812" xlink:href="#ArialMT-20"/>
     <use x="138.916016" xlink:href="#ArialMT-70"/>
     <use x="194.53125" xlink:href="#ArialMT-72"/>
     <use x="227.832031" xlink:href="#ArialMT-65"/>
     <use x="283.447266" xlink:href="#ArialMT-64"/>
     <use x="339.0625" xlink:href="#ArialMT-69"/>
     <use x="361.279297" xlink:href="#ArialMT-63"/>
     <use x="411.279297" xlink:href="#ArialMT-74"/>
     <use x="439.0625" xlink:href="#ArialMT-6f"/>
     <use x="494.677734" xlink:href="#ArialMT-72"/>
     <use x="527.978516" xlink:href="#ArialMT-73"/>
    </g>
   </g>
  </g>
 </g>
 <defs>
  <clipPath id="p72bf713151">
   <rect height="271.8" width="837" x="135" y="43.2"/>
  </clipPath>
 </defs>
</svg>
